<?xml version="1.0" encoding="iso-8859-1"?>
<!-- Generator: Adobe Illustrator 19.0.0, SVG Export Plug-In . SVG Version: 6.00 Build 0)  -->
<svg version="1.1" id="Layer_1" xmlns="http://www.w3.org/2000/svg" xmlns:xlink="http://www.w3.org/1999/xlink" x="0px" y="0px"
	 viewBox="0 0 512 512" style="enable-background:new 0 0 512 512;" xml:space="preserve">
<g>
	<g>
		<polygon points="190.272,331 205.272,361 306.728,361 321.728,331 		"/>
	</g>
</g>
<g>
	<g>
		<path d="M512,226c0-24.814-20.186-45-45-45h-34.29l-6.48-25.928C421.22,135.019,403.261,121,382.577,121h-23.093
			c0.716-4.942,1.516-9.864,1.516-15C361,47.536,313.233,0,256,0c-57.23,0-105,47.532-105,106c0,5.136,0.8,10.058,1.516,15h-23.093
			c-20.684,0-38.643,14.019-43.652,34.087L79.294,181H45c-24.814,0-45,20.186-45,45c0,23.101,17.556,41.966,39.994,44.495
			C33.669,278.425,31,288.181,31,298.422c0,35.947,0,72.596,0,108.578c0,24.853,20.147,45,45,45h360c24.853,0,45-20.147,45-45
			c0-12.297,0-96.795,0-108.578c0-10.241-2.669-19.997-8.994-27.927C494.444,267.966,512,249.101,512,226z M241,76
			c0-8.291,6.709-15,15-15s15,6.709,15,15v15h15c8.291,0,15,6.709,15,15s-6.709,15-15,15h-30c-8.291,0-15-6.709-15-15V76z M30,226
			c0-8.276,6.724-15,15-15h26.794l-7.498,30H45C36.724,241,30,234.276,30,226z M76,361H61v-30h15c8.276,0,15,6.724,15,15
			S84.276,361,76,361z M359.418,322.709l-30,60c-2.542,5.081-7.734,8.291-13.414,8.291H195.996c-5.68,0-10.873-3.21-13.414-8.291
			l-30-60C147.581,312.741,154.893,301,166,301h180C357.107,301,364.419,312.741,359.418,322.709z M95.204,241l19.658-78.633
			c1.685-6.694,7.661-11.367,14.561-11.367h32.109c16.921,35.345,52.742,60,94.468,60c41.726,0,77.547-24.655,94.468-60h32.109
			c6.899,0,12.876,4.673,14.561,11.353L416.796,241H95.204z M451,361h-15c-8.276,0-15-6.724-15-15s6.724-15,15-15h15V361z M467,241
			h-19.296l-7.496-30H467c8.276,0,15,6.724,15,15S475.276,241,467,241z"/>
	</g>
</g>
<g>
	<g>
		<path d="M363.763,482c6.213,17.422,22.707,30,42.237,30h30c19.53,0,36.024-12.578,42.237-30H363.763z"/>
	</g>
</g>
<g>
	<g>
		<path d="M33.763,482C39.976,499.422,56.47,512,76,512h30c19.53,0,36.024-12.578,42.237-30H33.763z"/>
	</g>
</g>
<g>
</g>
<g>
</g>
<g>
</g>
<g>
</g>
<g>
</g>
<g>
</g>
<g>
</g>
<g>
</g>
<g>
</g>
<g>
</g>
<g>
</g>
<g>
</g>
<g>
</g>
<g>
</g>
<g>
</g>
</svg>
