<svg id="Capa_1" enable-background="new 0 0 512 512" height="512" viewBox="0 0 512 512" width="512" xmlns="http://www.w3.org/2000/svg"><g><path d="m429.294 134.869v-134.869h-346.588v134.855l-82.706 65.718v311.427h511.263l.737-311.413zm-273.782 213.717-125.553 114.501v-222.617zm22.867 19.691 77.27 66.539 77.193-66.473 124.672 113.697h-403.88zm177.331-19.625 126.238-108.706-.529 223.35zm117.442-140.668-43.859 37.768v-72.618zm-73.817-178.025v241.591l-143.686 123.731-142.984-123.127v-242.195zm-316.629 216.397-44.232-38.089 44.232-35.147z"/><path d="m256.301 200.484c12.801 0 26.465-2.733 35.094-6.904l-6.041-17.691c-9.781 4.459-19.561 6.328-29.053 6.328-29.342 0-48.759-20.136-48.759-48.327 0-27.328 19.849-48.04 49.334-48.04 29.629 0 49.046 18.41 49.046 44.444 0 16.109-3.308 20.136-7.336 20.136-3.164 0-5.609-1.87-5.609-7.911v-41.135h-27.615v5.753c-4.171-4.603-10.068-7.048-17.691-7.048-15.965 0-30.492 13.52-30.492 35.67s14.958 35.814 30.492 35.814c10.931 0 17.835-4.603 21.862-12.514 4.027 8.343 11.938 12.514 22.725 12.514 18.41 0 33.8-14.239 33.8-41.711 0-34.52-27.759-62.279-69.182-62.279-43.868 0-71.628 29.198-71.628 66.306 0 37.686 27.76 66.595 71.053 66.595zm-.72-51.491c-5.897 0-10.212-4.459-10.212-13.233 0-8.63 4.315-13.089 10.212-13.089s10.356 4.459 10.356 13.089c0 8.775-4.458 13.233-10.356 13.233z"/><path d="m169.615 230.519h172.068v29.959h-172.068z"/><path d="m169.615 290.44h172.068v29.959h-172.068z"/></g></svg>