<?xml version="1.0" encoding="UTF-8"?>
<!DOCTYPE svg PUBLIC "-//W3C//DTD SVG 1.1//EN" "http://www.w3.org/Graphics/SVG/1.1/DTD/svg11.dtd">
<!-- Creator: CorelDRAW 2020 (64-Bit) -->
<svg xmlns="http://www.w3.org/2000/svg" xml:space="preserve" width="144.444mm" height="146.473mm" version="1.1" shape-rendering="geometricPrecision" text-rendering="geometricPrecision" image-rendering="optimizeQuality" fill-rule="evenodd" clip-rule="evenodd"
viewBox="0 0 2334.71 2367.51"
 xmlns:xlink="http://www.w3.org/1999/xlink"
 xmlns:xodm="http://www.corel.com/coreldraw/odm/2003"
 enable-background="new 0 0 512 512">
 <g id="Слой_x0020_1">
  <metadata id="CorelCorpID_0Corel-Layer"/>
  <g id="income.svg">
   <g>
    <path fill="#8EC301" fill-rule="nonzero" d="M1395.82 1171.36c322.94,0 585.64,-262.74 585.64,-585.68 0,-322.94 -262.69,-585.68 -585.64,-585.68 -322.94,0 -585.68,262.74 -585.68,585.68 0,322.94 262.74,585.68 585.68,585.68zm-69.36 -929.94l0 -15.91c0,-38.33 31.03,-69.36 69.36,-69.36 38.29,0 69.36,31.03 69.36,69.36l0 16c82.54,17.71 144.64,91.23 144.64,179 0,38.29 -31.07,69.36 -69.36,69.36 -38.33,0 -69.36,-31.07 -69.36,-69.36 0,-24.46 -19.93,-44.39 -44.39,-44.39l-62.19 0c-24.46,0 -44.39,19.93 -44.39,44.39 0,14.01 6.7,27.33 17.99,35.65l57.71 42.73 140.2 103.76c46.06,34.08 73.8,88.6 74.17,145.94l0 0.65c0.32,48.92 -18.4,95.07 -52.81,129.89 -25.52,25.85 -57.43,43.19 -92.2,50.5l0 16.23c0,38.33 -31.07,69.36 -69.36,69.36 -38.33,0 -69.36,-31.03 -69.36,-69.36l0 -16c-33.85,-7.22 -64.97,-23.86 -90.12,-48.74 -34.82,-34.36 -54.15,-80.23 -54.42,-129.15 -0.23,-38.29 30.61,-69.54 68.9,-69.78l0.46 -0c38.1,0 69.13,30.8 69.36,68.95 0.09,23.94 19.35,44.11 44.62,44.11 38.33,-0.23 24.05,-0.15 62.1,-0.37 24.62,-0.19 44.3,-20.18 44.11,-44.71l0 -0.65c-0.09,-13.87 -6.8,-27.1 -17.99,-35.37l-57.66 -42.68 -140.25 -103.76c-46.43,-34.4 -74.17,-89.43 -74.17,-147.18 0,-87.95 62.29,-161.52 145.06,-179.09l-0 0z"/>
    <path fill="#8EC301" fill-rule="nonzero" d="M446.87 1504.63c-17.78,-30.82 -57.27,-41.55 -88.29,-23.66l-326.26 188.34c-30.89,17.88 -41.49,57.39 -23.66,88.33l333.46 577.55c17.85,30.89 57.34,41.49 88.29,23.66l326.26 -188.38c30.94,-17.84 41.5,-57.35 23.66,-88.29l-333.46 -577.55z"/>
    <path fill="#8EC301" fill-rule="nonzero" d="M2316.33 1389.34c-31.4,-43.6 -92.16,-53.45 -135.71,-22.06 -132.16,95.21 -385.92,278.04 -406.08,292.61 -9.29,7.91 -19.05,15.07 -29.22,21.41 -39.91,25.11 -86.19,38.52 -134.51,38.52l-332.24 0c-38.29,0 -69.36,-31.03 -69.36,-69.36 0,-38.38 31.12,-69.36 69.36,-69.36l355.31 0c52.2,0 94.01,-43.47 91.83,-95.76 -2.03,-49.62 -44.39,-88.09 -94.05,-88.09l-270.46 0c-18.31,-19.38 -38.38,-37.13 -59.88,-52.99 -73.94,-54.52 -165.31,-86.75 -264.22,-86.75 -175.85,0 -350.83,110.79 -423.38,258.67l283.73 491.4 532.23 0c104.5,0 207.43,-26.73 298.02,-78.84 31.4,-18.03 65.01,-39.72 101.45,-65.89 152.69,-109.68 464.86,-337.56 465.09,-337.69 43.65,-31.35 53.55,-92.2 22.1,-135.81l-0 -0z"/>
   </g>
  </g>
 </g>
</svg>
