<?xml version="1.0" encoding="UTF-8"?>
<!DOCTYPE svg PUBLIC "-//W3C//DTD SVG 1.1//EN" "http://www.w3.org/Graphics/SVG/1.1/DTD/svg11.dtd">
<!-- Creator: CorelDRAW 2020 (64-Bit) -->
<svg xmlns="http://www.w3.org/2000/svg" xml:space="preserve" width="89.7468mm" height="89.7468mm" version="1.1" shape-rendering="geometricPrecision" text-rendering="geometricPrecision" image-rendering="optimizeQuality" fill-rule="evenodd" clip-rule="evenodd"
viewBox="0 0 7519.63 7519.63"
 xmlns:xlink="http://www.w3.org/1999/xlink"
 xmlns:xodm="http://www.corel.com/coreldraw/odm/2003">
 <g id="Слой_x0020_1">
  <metadata id="CorelCorpID_0Corel-Layer"/>
  <g id="car.svg">
   <g>
    <g>
     <polygon fill="#8EC301" fill-rule="nonzero" points="2794.48,4861.32 3014.79,5301.93 4504.84,5301.93 4725.15,4861.32 "/>
    </g>
   </g>
   <g>
    <g>
     <path fill="#8EC301" fill-rule="nonzero" d="M7519.63 3319.21c0,-364.44 -296.47,-660.9 -660.9,-660.9l-503.61 0 -95.17 -380.8c-73.58,-294.51 -337.34,-500.41 -641.12,-500.41l-339.16 0c10.52,-72.58 22.27,-144.87 22.27,-220.3 0,-858.64 -701.54,-1556.8 -1542.11,-1556.8 -840.52,0 -1542.11,698.09 -1542.11,1556.8 0,75.43 11.75,147.73 22.27,220.3l-339.16 0c-303.79,0 -567.54,205.9 -641.11,500.63l-95.13 380.58 -503.67 0c-364.43,0 -660.9,296.46 -660.9,660.9 0,339.28 257.85,616.35 587.39,653.49 -92.89,116.46 -132.1,259.75 -132.1,410.16 0,527.94 0,1066.2 0,1594.65 0,365.01 295.89,660.9 660.9,660.9l5287.24 0c365.01,0 660.9,-295.89 660.9,-660.9 0,-180.6 0,-1421.61 0,-1594.66 0,-150.41 -39.2,-293.69 -132.09,-410.16 329.54,-37.14 587.39,-314.21 587.39,-653.49zm-3980.12 -2203.02c0,-121.77 98.53,-220.29 220.3,-220.29 121.77,0 220.3,98.53 220.3,220.29l0 220.3 220.3 0c121.77,0 220.3,98.53 220.3,220.3 0,121.77 -98.53,220.3 -220.3,220.3l-440.6 0c-121.77,0 -220.3,-98.53 -220.3,-220.3l0 -440.6zm-3098.9 2203.02c0,-121.55 98.75,-220.3 220.29,-220.3l393.52 0 -110.12 440.6 -283.4 0c-121.54,0 -220.29,-98.75 -220.29,-220.3zm675.58 1982.71l-220.3 0 0 -440.6 220.3 0c121.55,0 220.3,98.75 220.3,220.3 0,121.54 -98.75,220.3 -220.3,220.3zm4162.5 -562.37l-440.6 881.21c-37.34,74.62 -113.59,121.77 -197.01,121.77l-1762.53 0c-83.42,0 -159.69,-47.15 -197.01,-121.77l-440.6 -881.21c-73.45,-146.4 33.94,-318.84 197.07,-318.84l2643.62 0c163.13,0 270.52,172.43 197.07,318.84zm-3880.45 -1200.04l288.71 -1154.86c24.75,-98.32 112.52,-166.94 213.86,-166.94l471.57 -0.01c248.52,519.1 774.61,881.21 1387.43,881.21 612.82,0 1138.91,-362.1 1387.43,-881.21l471.57 0c101.32,0 189.11,68.63 213.86,166.74l288.71 1155.07 -4723.15 0zm5225.5 1762.41l-220.3 0c-121.55,0 -220.3,-98.75 -220.3,-220.3 0,-121.54 98.75,-220.3 220.3,-220.3l220.3 0 0 440.6zm234.99 -1762.41l-283.4 0 -110.09 -440.6 393.49 0c121.55,0 220.29,98.76 220.29,220.3 0,121.54 -98.75,220.3 -220.29,220.3z"/>
    </g>
   </g>
   <g>
    <g>
     <path fill="#8EC301" fill-rule="nonzero" d="M5342.51 7079.02c91.25,255.88 333.49,440.61 620.33,440.61l440.6 0c286.83,0 529.07,-184.73 620.33,-440.61l-1681.26 0z"/>
    </g>
   </g>
   <g>
    <g>
     <path fill="#8EC301" fill-rule="nonzero" d="M495.87 7079.02c91.25,255.88 333.5,440.61 620.33,440.61l440.6 0c286.84,0 529.08,-184.73 620.33,-440.61l-1681.26 0z"/>
    </g>
   </g>
   <g>
   </g>
   <g>
   </g>
   <g>
   </g>
   <g>
   </g>
   <g>
   </g>
   <g>
   </g>
   <g>
   </g>
   <g>
   </g>
   <g>
   </g>
   <g>
   </g>
   <g>
   </g>
   <g>
   </g>
   <g>
   </g>
   <g>
   </g>
   <g>
   </g>
  </g>
 </g>
</svg>
