<?xml version="1.0" encoding="UTF-8"?>
<!DOCTYPE svg PUBLIC "-//W3C//DTD SVG 1.1//EN" "http://www.w3.org/Graphics/SVG/1.1/DTD/svg11.dtd">
<!-- Creator: CorelDRAW 2020 (64-Bit) -->
<svg xmlns="http://www.w3.org/2000/svg" xml:space="preserve" width="110.744mm" height="154.047mm" version="1.1" shape-rendering="geometricPrecision" text-rendering="geometricPrecision" image-rendering="optimizeQuality" fill-rule="evenodd" clip-rule="evenodd"
viewBox="0 0 2153.93 2996.15"
 xmlns:xlink="http://www.w3.org/1999/xlink"
 xmlns:xodm="http://www.corel.com/coreldraw/odm/2003"
 enable-background="new 0 0 512 512">
 <g id="Слой_x0020_1">
  <metadata id="CorelCorpID_0Corel-Layer"/>
  <g id="medal.svg">
   <path fill="#8EC301" fill-rule="nonzero" d="M1556.25 2099.77l137.01 -222.33 247.25 -84.32 27.39 -259.69 186.02 -183.13 -88.44 -245.81 88.44 -245.82 -186.02 -183.13 -27.39 -259.68 -247.25 -84.32 -137.01 -222.33 -259.15 31.29 -220.14 -140.49 -220.14 140.5 -259.14 -31.29 -137.01 222.32 -247.25 84.32 -27.39 259.68 -186.02 183.13 88.44 245.82 -88.44 245.82 186.02 183.13 27.39 259.69 247.25 84.32 137.01 222.32 259.15 -31.28 220.14 140.5 220.14 -140.5 259.14 31.28zm-1236.68 -995.28c0,-417.63 339.77,-757.4 757.4,-757.4 417.63,0 757.4,339.77 757.4,757.4 0,417.63 -339.77,757.4 -757.4,757.4 -417.63,0 -757.4,-339.77 -757.4,-757.4z"/>
   <path fill="#8EC301" fill-rule="nonzero" d="M1076.96 522.76c-320.77,0 -581.73,260.96 -581.73,581.73 0,320.77 260.96,581.73 581.73,581.73 320.77,0 581.73,-260.96 581.73,-581.73 0,-320.77 -260.96,-581.73 -581.73,-581.73z"/>
   <polygon fill="#8EC301" fill-rule="nonzero" points="815.38,2250.43 507.11,2287.65 344.23,2023.34 288.86,2004.46 50.03,2750.96 480,2727.31 816.39,2996.15 1014.35,2377.42 "/>
   <polygon fill="#8EC301" fill-rule="nonzero" points="1809.7,2023.34 1646.82,2287.65 1338.55,2250.43 1139.58,2377.42 1337.54,2996.14 1673.93,2727.31 2103.9,2750.96 1865.07,2004.46 "/>
  </g>
 </g>
</svg>
