<?xml version="1.0" encoding="UTF-8"?>
<!DOCTYPE svg PUBLIC "-//W3C//DTD SVG 1.1//EN" "http://www.w3.org/Graphics/SVG/1.1/DTD/svg11.dtd">
<!-- Creator: CorelDRAW 2020 (64-Bit) -->
<svg xmlns="http://www.w3.org/2000/svg" xml:space="preserve" width="200mm" height="200mm" version="1.1" style="shape-rendering:geometricPrecision; text-rendering:geometricPrecision; image-rendering:optimizeQuality; fill-rule:evenodd; clip-rule:evenodd"
viewBox="0 0 19673 19673"
 xmlns:xlink="http://www.w3.org/1999/xlink"
 xmlns:xodm="http://www.corel.com/coreldraw/odm/2003">
 <defs>
  <style type="text/css">
   <![CDATA[
    .fil0 {fill:#2B2A29;fill-rule:nonzero}
   ]]>
  </style>
 </defs>
 <g id="Слой_x0020_1">
  <metadata id="CorelCorpID_0Corel-Layer"/>
  <g id="_1714747384832">
   <g id="_2560048646560">
    <g>
     <path class="fil0" d="M18094 12912c-1204,0 -2387,-189 -3508,-559 -549,-187 -1225,-16 -1559,329l-2212 1670c-2565,-1369 -4145,-2949 -5497,-5495l1621 -2154c421,-421 572,-1035 391,-1611 -372,-1126 -561,-2309 -561,-3514 0,-871 -708,-1579 -1579,-1579l-3613 0c-871,0 -1579,708 -1579,1579 0,9977 8117,18094 18094,18094 871,0 1579,-708 1579,-1579l0 -3603c0,-871 -708,-1579 -1579,-1579z"/>
    </g>
   </g>
  </g>
 </g>
</svg>
