<?xml version="1.0" encoding="UTF-8"?>
<!DOCTYPE svg PUBLIC "-//W3C//DTD SVG 1.1//EN" "http://www.w3.org/Graphics/SVG/1.1/DTD/svg11.dtd">
<!-- Creator: CorelDRAW 2020 (64-Bit) -->
<svg xmlns="http://www.w3.org/2000/svg" xml:space="preserve" width="142.28mm" height="129.179mm" version="1.1" shape-rendering="geometricPrecision" text-rendering="geometricPrecision" image-rendering="optimizeQuality" fill-rule="evenodd" clip-rule="evenodd"
viewBox="0 0 810.17 735.57"
 xmlns:xlink="http://www.w3.org/1999/xlink"
 xmlns:xodm="http://www.corel.com/coreldraw/odm/2003">
 <g id="Слой_x0020_1">
  <metadata id="CorelCorpID_0Corel-Layer"/>
  <path fill="#FEFEFE" d="M359.72 123.41l-10.43 4.01c-0.17,-0.33 -0.73,0.37 -1.06,0.61l15.5 15.69c5.75,5.46 11.12,9.14 16.88,14.32 5.42,4.87 9.5,10.46 15.33,15.83 6.78,6.25 6.58,8.04 19.33,6.56 43.96,-5.09 120.31,-13.5 157.28,17.18 8.87,7.36 23.52,21.17 18.11,41.35 -6.09,22.72 -41.88,46.92 -67.23,54.42 2.66,4.85 0.22,1.4 4.03,5.13 1.23,1.2 2.18,1.78 3.72,2.98l20.34 20.81 -19.39 6.32 -11.44 3.55c-14.07,6.94 -15.26,3.45 -23.18,-5.32 -6.16,-6.82 -13.2,-13.91 -19.57,-17.7 -10.14,4.63 -31.13,9.76 -44.33,11.56 -16.93,3.75 -52.74,3.62 -70.13,0.6 -25.54,-4.44 -35.82,-12.19 -49.54,-23.81 5.15,-4.75 36.27,-12.73 45.78,-17.06 6.53,-2.41 6.95,-4.06 12.37,-0.71 2.86,1.76 6.97,4.83 10.67,7.05l24.58 2.51 24.62 -3.89c5.32,-2.32 9.57,-4.12 15.26,-3.84 -1.91,-5.42 -3.29,-4.99 -8.08,-9.68 -2.42,-2.38 -4.62,-5.05 -7.11,-7.64l-47.7 -44.77 -50.89 5.1 -22.94 0.87 -23.04 0.03 -24.64 -2.45c-27.67,-3.07 -67.76,-24.2 -64.93,-51.77 2.62,-25.57 40.66,-43.56 63.3,-53.34l9.89 -4.66c-1.57,-3.83 0.4,-0.08 -1.86,-3.04l-12.11 -11.02c-4.57,-3.76 -8.75,-7.69 -12.88,-13.86 14.68,-3.47 31.67,-12.43 45.2,-13.47 7.12,10.05 18.99,17.3 25.74,26.61 13.35,-1.33 26.52,-6.4 41.51,-7.75 40.46,-3.63 85.7,-4.86 114.05,23.55 -5.3,3.24 -50.67,18.34 -57.38,18.68 -13.81,-17.22 -29.89,-13.52 -53.65,-9.55zm-323.2 58.81l-1.91 24.63c0.99,22.96 4.7,11.26 -7.13,27.31 -5.44,7.38 -8.74,15 -13.61,22.11l-11 26.22c0.89,8.22 -3.51,24.21 -2.78,37.67 0.6,11.05 6.5,24.36 5.8,33.31 0.31,0.28 0.63,0.75 0.79,0.97l1.46 2.02c0.2,0.31 0.44,0.74 0.63,1.08l29.14 46.45c4.23,4.25 7.62,7.99 12.09,12.44 3.45,3.43 11.61,8.4 12.55,12.07 13.87,6.31 34.28,29.38 89.34,50.2 33.56,12.69 71.64,24.83 109.33,30.28 37.89,5.72 69.52,8.46 110.01,8.33 20.27,-0.06 36.41,-1.04 56.32,-3.03 11.81,-1.18 45.27,-7.39 53.58,-6.39 0.36,-0.26 0.96,-0.99 1.17,-0.64 0.21,0.35 0.9,-0.49 1.19,-0.61 9.58,-3.91 -7.99,2.5 2.51,-1.02l46.01 -11.58c17.49,-5.56 31.3,-10.25 47.75,-16.53 24.01,-11.51 43.74,-19.47 64.98,-34.92 4.6,-3.34 4.94,-4.3 9.4,-5.05 2.39,-4.62 25.8,-22.02 41.52,-42.55 12.56,-16.4 15.12,-21.46 22.44,-39.89l3.76 -11.07c1.96,-4.6 -3.51,6.49 1.31,-2.64 0.23,-0.44 0.61,-0.97 0.81,-1.33 0.21,-0.37 0.55,-0.92 0.87,-1.35 5.53,92.37 -70.14,145.41 -143.45,177.1 -5.68,2.89 -15.87,7.28 -21.83,7.13 -9.83,10.61 -91.76,25.6 -102.95,26.84 -7.29,1.23 -12.01,3 -19.6,1.34 -0.34,0.25 -0.81,0.27 -1.01,0.76 -0.21,0.51 -0.85,0.56 -1.14,0.64 -2.55,0.75 -1.87,0.59 -4.53,0.8 -48.64,4.04 -96.42,4.6 -144.49,-1.64 -52,-2.48 -106.72,-22.77 -153.45,-41.84 -7.48,-3.05 -12.91,-7.18 -18.96,-9.54 6.45,12.73 19.27,19.58 25.78,30.96l5.99 3.46c2.67,2.1 3.55,3.24 6.15,5.28 15.94,12.5 22.96,16.72 41.51,27.53 53.17,30.99 154.64,57.77 216.13,57.47 111.88,9.59 291.21,-23.1 366.79,-115.33 2.98,-3.64 3.74,-5.51 7.58,-8.9 8.24,-17.43 21.35,-27.83 26.19,-64.22 1.46,-11 -0.66,-21.37 0.64,-30.9l-2.52 -6.41c-0.57,-2.12 -0.87,-4.4 -1.46,-6.82 -1.12,-4.67 -2.53,-8.13 -3.74,-12.98 -7.27,-16.12 -14.24,-29.1 -24.92,-42.01 -5.61,-6.78 -26.93,-29.1 -33.59,-31.79 -8.29,9.71 -14.23,21.18 -22.26,30.1 -17.63,19.58 -71.84,61.72 -89.88,62.41 -4.48,5.49 -17.36,9.86 -24.1,12.45 -9.13,3.51 -19.23,6.95 -27.95,9.38l-23 7.21c-40.85,14.68 -114.97,20.59 -159.28,20.58 -44.88,-0.02 -122.92,-7.38 -160.96,-21.99 -19.92,-3.53 -57.6,-19.47 -74.59,-27.72 -44.74,-21.74 -83.01,-50.13 -109.34,-92.57 -8.33,-13.42 -25.35,-59.82 -14.89,-78.72 2.38,22.51 18.18,47.08 29.11,61.22 16.29,21.07 36.51,33.05 46.62,43.67 6.64,2.42 17.28,10.53 24.48,14.8 6.81,4.04 17.05,9.46 24.78,12.82 16.25,7.6 31.25,14.22 49.26,20l24.69 7.68c15.97,3.25 31.11,8.17 48.51,11.22 16.92,2.97 33.06,4.51 49.96,7.1l24.63 1.91 24.63 1.08 73.89 -2.72c8.8,-0.41 14.36,-2.59 22.88,-1.09l2.45 -1.19c0.33,-0.11 0.9,-0.37 1.32,-0.5 14.31,-4.31 59.33,-7.61 96.51,-22.11 6.99,-3.06 16.26,-5.24 24,-8.5 5.35,-2.26 18.61,-8.45 23.62,-9.29l4.12 -2.55c1.01,-0.55 2.5,-1.24 3.3,-1.63l19.02 -10.45c9.2,-4.74 17.36,-11.37 26.1,-14.96 1.23,-3.01 3.8,-3.66 7.11,-5.98 15.6,-10.91 35.59,-31.76 46.48,-46.8 9.5,-15.88 12.57,-18.98 18.83,-37.33l5.31 -13.42 1.43 -21.24c-0.14,-20.18 -3.84,-38.55 -11.67,-54.3 -33.02,-66.4 -83.37,-83.25 -94.15,-94.58 -6.96,-2.25 -13,-6.49 -18.8,-9.28 -47.23,-22.73 -90.48,-34.5 -143.82,-43.31 -130.72,-21.58 -334.34,4.68 -419.35,105.2 -9.56,11.3 -14.43,17.51 -22.29,31.86 -8.29,15.11 -8.13,22 -14.1,38.14z"/>
  <path fill="#FEFEFE" d="M38.19 502.41l-3.58 24.63 1.91 24.63c3.4,9.2 3.99,17.19 8.15,25.92 3.75,7.89 8.36,15.75 11.82,23.04 3.05,3.81 6.19,8.26 9.87,12.87l21.51 22.91c4.8,3.85 6.56,6.37 11.2,10.05 33.07,26.22 74.24,47.23 116.67,60.65 34.98,11.06 37.29,10.06 70.1,18.04l23 4.09 26.26 3.04c21.92,0.34 42.5,3.22 65.68,3.29 21.78,0.06 44.04,-1.56 65.45,-3.56 30.31,-2.83 90.33,-13.69 115.17,-24.65 4.46,-1.61 9.63,-2.95 13.44,-4.35 6.08,-2.25 8.05,-3.43 14.46,-4.86 3.59,-3 17.49,-7.62 22.84,-10.4 7.5,-3.89 15.93,-8.92 22.84,-11.82 7.32,-5.97 21.48,-13.24 30.75,-19.88 27.96,-20.03 54.95,-50.01 67.27,-84.07 -23.64,19.45 -52.01,38.8 -85.91,52.35 -119.75,47.86 -229.88,50.22 -356.62,26.16 -17.71,-4.68 -34.52,-9.49 -52.43,-15.22 -12.8,-4.1 -36.76,-13.14 -45.78,-19.56 -9.45,-2.14 -30.59,-15.65 -38.57,-20.83 -12.92,-8.4 -21.64,-15.2 -32.6,-24.8 -5.7,-4.99 -10.25,-8.38 -15.27,-14.33 -13.66,-16.2 -27.78,-34.09 -33.49,-54.96 -6.87,-8.93 0.87,-12.66 -10.8,-20.65 -5.88,-4.03 -13.57,-8.63 -17.36,-13.84 -5.34,-2.39 -3.05,-2.65 -8.21,-4.93 -3.41,6.04 -6.46,12.19 -9.99,19.54 -3.32,6.91 -5.18,14.31 -7.77,21.51z"/>
  <path fill="#FEFEFE" d="M352.35 189.63c-103.33,20.5 -112.18,-35.14 -47.97,-46.82 10.22,12.33 34.81,33.32 47.97,46.82z"/>
  <path fill="#FEFEFE" d="M443.55 205.59c103.33,-20.5 112.18,35.14 47.97,46.82 -10.22,-12.33 -34.81,-33.32 -47.97,-46.82z"/>
 </g>
</svg>
