<?xml version="1.0" encoding="UTF-8"?>
<!DOCTYPE svg PUBLIC "-//W3C//DTD SVG 1.1//EN" "http://www.w3.org/Graphics/SVG/1.1/DTD/svg11.dtd">
<!-- Creator: CorelDRAW 2020 (64-Bit) -->
<svg xmlns="http://www.w3.org/2000/svg" xml:space="preserve" width="281.951mm" height="283.881mm" version="1.1" shape-rendering="geometricPrecision" text-rendering="geometricPrecision" image-rendering="optimizeQuality" fill-rule="evenodd" clip-rule="evenodd"
viewBox="0 0 2347.83 2363.9"
 xmlns:xlink="http://www.w3.org/1999/xlink"
 xmlns:xodm="http://www.corel.com/coreldraw/odm/2003">
 <g id="Слой_x0020_1">
  <metadata id="CorelCorpID_0Corel-Layer"/>
  <path fill="#FEFEFE" d="M1843.62 2045.41c-1.68,4.27 -0.21,4.84 -3.1,9.51 -1.92,3.11 -3.93,8.74 -6.77,13.1 -0.08,0.13 -0.19,0.31 -0.28,0.44l-11.33 13.18c-0.1,0.1 -0.25,0.26 -0.36,0.36 -0.1,0.1 -0.25,0.26 -0.36,0.36l-8.74 8.07c-1.66,1.34 -2.21,1.04 -4.14,2.23l-14.87 11.26c-1.01,0.64 -1.01,0.4 -1.92,0.94 -1.68,0.99 -2.02,2.23 -3.54,3.42 -0.11,0.09 -0.3,0.19 -0.42,0.28 -0.12,0.09 -0.31,0.2 -0.43,0.29l-0.82 0.64c-2.95,2.38 -8.45,4.41 -12.25,6.75l-11.66 7.44c-5.21,4.03 -18.85,8.35 -25.48,12.53 -4.46,2.81 -10.24,4.99 -15.32,7.12l-8.61 4.08c-2.13,1.01 -0.46,0.52 -2.13,1.32 -1.33,0.63 -3.29,0.73 -5.02,1.41l-22.71 9.09c-1.88,0.98 -0.81,1.17 -4.05,1.99 -3.7,0.93 -5.65,1.95 -9.77,3.04 -4.32,1.14 -3.87,2.22 -9.86,3.4 -4.18,0.82 2.79,-0.96 -1.28,0.31 -0.21,0.06 -0.38,0.14 -0.57,0.21l-2.75 1.41c-1.65,0.65 -3.15,0.45 -5.28,1.01 -3.44,0.9 -0.89,1.01 -4.33,1.94l-25.08 7.49c-3.46,1.22 -0.65,1.19 -4.42,1.62 -2.27,0.26 -4.14,0.27 -5.98,0.61l-10.19 2.64c-3.29,0.71 -1.77,0.89 -4.38,1.91l-33.74 7.82c-0.19,0.06 -0.38,0.12 -0.56,0.19 -7.74,2.96 -7.28,0.85 -13.4,2.22 -3.81,0.86 -4.23,1.79 -9.86,2.68 -10.6,1.66 -21.43,4.69 -31.94,6.1l-22.71 3.61c-4.28,1.48 -6.11,1.48 -11.07,1.66 -5.97,0.22 -5.22,1.83 -10.51,2.08 -11.74,0.55 -22.89,3.89 -34.56,4.25 -4.3,0.13 -7.06,1.03 -11.08,1.63 -3.95,0.58 -7.52,0.83 -12.2,1.15 -6.75,0.46 -11.5,2.37 -22.59,2.71 -8.26,0.25 -14.5,2.06 -23.24,2.22 -16.35,0.31 -31.55,3.12 -47.94,3.36 -16.08,0.24 -33.57,1.93 -49.36,2.04 -22.75,0.17 -82.26,2.64 -101.26,0.51l-73.59 -3.24c-9.94,-0.13 -42.44,-0.85 -50.52,-3.72 -2.84,-1.01 -6.33,-0.81 -9.4,-0.84 -4.54,-0.04 -8.64,-0.19 -12.55,-0.72 -4.22,-0.57 -6.02,-1.86 -10.68,-2.04 -4.16,-0.16 -8.56,0.08 -12.68,-0.15 -9.56,-0.54 -1.53,-2.84 -21.89,-3.4 -9.79,-0.27 -13.65,-2.51 -21.87,-3.31 -4.75,-0.46 -5.82,-1.77 -10.08,-2.38l-65.39 -12.06c-5.49,-0.56 -6.4,0.22 -11.03,-1.73 -2.38,-1 -7.45,-0.08 -10.97,-1.83 -2.89,-1.44 -11.22,-3.15 -15.6,-4.2 -1.52,-0.36 -3.63,-0.58 -5.54,-0.93 -7.37,-1.36 -24.61,-7.61 -30.1,-8.15 -2.27,-0.22 -3.49,-0.24 -5.53,-0.73 -3.05,-0.73 -1.17,-0.83 -4.43,-1.78 -4.65,-1.36 -5.58,-0.41 -9.78,-2.67l-9.49 -3.34c-11.34,-4.81 -33.17,-9.98 -42.57,-15.06 -4.42,-2.39 -9.37,-3.59 -13.94,-5.81 -4.09,-1.98 -9.29,-3.14 -13.53,-5.49 -1.27,-0.71 -8.71,-3.23 -13.76,-5.98l-25.35 -12.63c-3.24,-1.3 -1.74,-0.58 -4.22,-2.2 -2.77,-1.81 -4.53,-1.84 -8.28,-4.41 -5.36,-3.68 -14.76,-8.38 -20.49,-11.32l-17.17 -13.11c-7.24,-6.75 -11.83,-4.56 -19.92,-14.53 -3.71,-4.58 -9.34,-7.86 -12.29,-12.99l-5.1 -7.69c-5.09,-8.29 -10.11,-20.35 -6.28,-30.16l6.05 -12.81c3.02,-3.52 6.09,-6.12 8.76,-10.21 2.55,-3.89 8.79,-9.92 12.43,-13.04 1.38,-1.19 3.12,-1.93 3.83,-2.55 0.62,-0.54 2.14,-3.07 3.01,-4.01l14.56 -10.8c7.6,-5.22 9.72,-1.15 17.21,2.71l8.57 3.97c8.31,1.88 9.08,4.28 13.55,5.5l18.86 7.36c3.62,1.85 9.78,3.16 14.34,4.69l13.91 5.16c1.71,0.7 3.15,0.96 4.73,1.61 5.03,2.08 15.72,4.38 19.33,6.07 2.49,1.16 43.22,11.33 50.09,14.07 5.57,2.21 14.96,3.6 21.41,4.86l15.37 3.59c2.22,0.61 1.94,1.21 4.21,1.95 3.01,0.98 6.16,0.64 11.13,2.32l41.71 8.86c4.3,0.77 6.97,0.87 11.37,1.41l21.33 4.11c4.34,1.63 27.63,4.38 33.79,4.96 4.14,0.39 7.21,1 10.69,2 3.13,0.9 8.79,0.66 12.18,1.13 4.54,0.63 6.39,1.52 10.97,1.74 10.1,0.48 16.18,2.34 22.59,2.78l23.77 2.39c3.27,0.43 7.99,0.44 11.79,0.92l71.24 5.54c15.64,1.99 34.42,-0.53 50.17,1.35 15.9,1.9 86.54,1.16 101.07,1 7.09,-0.08 16.61,-1.17 23.4,-1.67 8.18,-0.6 17.6,-0.14 25.95,-0.31 7.72,-0.16 16.26,-1.43 23.25,-1.97 8.29,-0.64 17.13,-0.67 25.4,-0.87 5.77,-0.14 15.37,-2.1 22.53,-2.55 16.29,-1.01 31.26,-2.05 47.14,-4.36 3.39,-0.49 7.17,-1.46 10.79,-1.81 3.89,-0.37 8.61,0.2 12.29,-0.63 7.82,-1.76 14.94,-1.88 22.32,-3.03 3.11,-0.48 8.73,-0.75 11.35,-1.41 3.89,-0.99 6.38,-1.65 11.07,-2.12 6.54,-0.66 15.09,-1.73 21.88,-3.55 4.54,-1.22 5.91,-0.83 11.08,-1.59 3.42,-0.5 7.16,-1.93 10.92,-2.4l21.77 -3.71c3.06,-0.7 2.16,-0.98 4.55,-1.63 3.78,-1.04 7.31,-0.87 11.51,-1.33 3.35,-0.37 3.14,-0.88 5.16,-1.84 2.08,-0.99 7.32,-1.13 10.41,-2.29 3.81,-1.43 6.62,-0.84 10.62,-1.99 8,-2.29 26.5,-5.61 30.85,-7.35 6.43,-2.56 13.38,-3.2 19.7,-5.6l10.78 -2.68c4.68,-0.82 6.83,-0.49 10.62,-2.15 4.56,-1.99 10.51,-2.94 18.67,-6.61 1.86,-0.84 3.01,-0.82 5.12,-1.24l10.16 -3.25c1.69,-0.55 2.9,-1.13 4.66,-1.69 9.86,-3.16 18.77,-7.43 28.86,-9.91l6.35 -2.81c2.01,-0.92 1.13,-0.68 2.19,-1.34 2.82,-1.76 6.19,-1.37 9.52,-3.19 2.34,-1.27 2.08,-0.86 4.59,-1.7l17.4 -7.91c2.35,-0.79 2.93,-0.28 5.15,-1.37 1.45,-0.71 2.43,-1.43 4.2,-2.1 9.33,-3.52 4.08,-4.75 13.36,0.13 5.73,3.01 16.97,12.35 21.6,17.14l18.52 20.23c1.87,2.59 2.98,5.46 4.3,8.42 2.65,5.92 6.93,13.51 4.22,20.39zm-250.2 -289.02c2.75,-0.17 6.13,-0.01 8.41,-0.91 6.35,-2.53 15.73,-4.67 22.21,-5.9l14.57 -3.74c5.58,-2.85 18.31,-4.04 22.34,-5.91 5.85,-2.71 17.22,-5.21 24.43,-7.91 2.84,-1.07 1.07,-0.7 3.33,-1.54 2.75,-1.03 5.72,-0.59 8.26,-1.75l6.52 -2.58c2.13,-0.75 1.41,-0.76 3.57,-1.34 1.77,-0.47 2.39,-0.45 4.01,-0.99 2.53,-0.85 3.38,-1.53 6.8,-2.4l19.9 -8.18c3.1,-1.94 4.41,-0.57 7.58,-1.7l32.05 -14.84c3.71,-1.17 9.41,-5.49 14.6,-2.86 5.13,2.6 19.22,14.04 23.31,19.05l10.67 11.03c3,2.26 5.15,5.26 7.38,8.26 1.88,2.54 4.03,5.48 5.29,8.9 2.34,6.34 3.31,3.59 4.47,14.65 1.2,11.45 -7.08,24.53 -13.79,32.8 -0.9,1.11 -1.37,1.44 -2.29,2.65 -0.56,0.73 -1.65,2.5 -2.03,2.92 -1.93,2.13 -2.57,1.1 -5.03,4.1 -6.9,8.39 -11.16,8.97 -14.82,13.36 -2.56,3.07 -12.11,8.1 -13.68,9.64 -2.22,2.18 0.46,0.67 -2.69,2.21l-6.48 3.47c-6.27,3.92 -15.63,11.13 -22.65,14.58 -2.14,1.05 -4.06,1.75 -6.05,3.22 -5.51,4.08 -13.54,5.99 -18.84,10.02l-15.8 7.23c-2.84,1.07 -1.56,0.69 -3.33,1.68 -3.86,2.17 -9.17,2.94 -13.07,5.35 -3.12,1.93 -6.57,2.51 -8.44,3.48l-8.6 2.72c-1.46,0.74 -2.09,0.77 -3.45,1.5 -0.22,0.12 -1.17,0.78 -1.27,0.85l-8.87 2.99c-3.52,1.48 -7.51,1.8 -10.96,3.21l-13.48 4.79c-1.72,0.67 -1.19,0.58 -1.5,0.75 -1.23,0.68 -0.77,0.6 -1.66,1 -1.16,0.52 -2.45,0.68 -3.81,0.86 -6.01,0.79 -3.04,1.05 -6.92,2.41 -5.47,1.91 -13.25,2.63 -18.81,5.28 -3.21,1.53 -8.58,1.31 -11.74,2.44 -4.91,1.76 -10.66,1.55 -15.43,3.09l-37.9 9.79c-7.28,0.78 -15.29,3.36 -22.77,4.73 -7.77,1.42 -25.22,3.87 -31.9,6.21 -4.92,1.72 -11.42,0.78 -16.75,2.37 -9.48,2.83 -30.49,5.17 -40.67,6.34 -5.33,0.61 -11.29,1.34 -17,2.02 -5.42,0.64 -10.39,1.92 -16.15,2.15 -7.44,0.3 -10.58,0.8 -16.84,2.27 -3.76,0.88 -13.4,0.97 -17.74,1.22 -5.81,0.33 -10.23,1.95 -16.87,2.01 -23.98,0.21 -47.67,3.46 -71.94,3.68 -26.84,0.24 -49.98,2.37 -76.85,2.04 -14.71,-0.18 -42.78,-2 -55.7,-1.46 -16.57,-0.03 -31.64,-0.64 -47.99,-0.86 -4.71,-0.06 -5.12,-1.24 -10.53,-1.28 -11.98,-0.09 -22.15,-1.71 -34.57,-2.12 -4.12,-0.13 -5.61,-1.11 -10.54,-1.38l-33.15 -3.6c-8.7,-0.21 -14.07,-0.68 -21.45,-2.3 -6.86,-1.5 -15.07,-0.15 -22.6,-2.12 -11.54,-3.01 -31.75,-2.84 -41.55,-6.9 -4.16,-1.73 -6,-0.59 -10.69,-1.49 -3.03,-0.58 -5.49,-1.94 -9.51,-2.34l-51.28 -9.41c-2.29,-0.91 -0.77,-1.07 -4.54,-1.85 -3.38,-0.7 -6.64,-0.71 -10.05,-1.86 -2.54,-0.86 -2.84,-0.44 -5.64,-0.93l-9.64 -2.9c-4.42,-0.93 -6.07,-0.46 -9.83,-2.05 -2.67,-1.13 -6.97,-1.19 -10.04,-2.67 -12.09,-5.8 -22.68,-6.65 -27.56,-8.38 -1.88,-0.67 -1.44,-1.27 -3.95,-2.18 -1.63,-0.6 -3.27,-0.54 -5.29,-1.14l-18.14 -5.82c-4.08,-2.1 -5.84,-1.23 -9.49,-2.62 -3.18,-1.21 -0.58,-1.07 -4.4,-1.99 -2.96,-0.72 -11.97,-2.98 -13.64,-4.39 -2.55,-2.16 -5.05,-2.08 -8.05,-3.99 -4.66,-2.97 -12,-4.49 -17.46,-7.21 -2.86,-1.43 -5.35,-2.5 -8.19,-3.78 -2.88,-1.3 -5.55,-2.02 -8.51,-3.55 -2.78,-1.43 -4.75,-3.12 -7.36,-4.46l-22.55 -11.36c-2.84,-1.82 -5.72,-4.68 -8.72,-5.86 -0.77,-0.3 -1.52,-0.5 -2.13,-0.78 -0.16,-0.08 -0.34,-0.17 -0.5,-0.25l-3.61 -1.98c-1.5,-0.71 -1.18,-0.5 -2.38,-1.24l-11.12 -7.99c-4.54,-3.99 -2.06,-1.36 -6.09,-4.46 -1.13,-0.87 0.79,0.24 -1.6,-1.01 -0.14,-0.07 -0.34,-0.14 -0.48,-0.22l-9.86 -6.6c-4.16,-3.73 -9.59,-5.57 -13.32,-9.94l-11.72 -12.99c-2.58,-3.24 -5.73,-7.01 -7.66,-10.69 -3.89,-7.43 -7.72,-16.08 -5.44,-25.03 2.91,-11.43 6.57,-15.21 12.4,-23.59l15.27 -15.05c8.03,-8.17 9.44,-10.17 19.8,-16.85 6.58,-4.24 3.38,-4.21 12.22,-1.7 1.74,0.49 2.56,0.7 4.06,1.51 12.04,6.51 10.25,4.55 16.95,7.72 1.54,0.73 2,1.29 4.17,2.13l16.92 6.97c0.07,0.02 1.99,0.68 2.12,0.74 7.53,3.36 17.05,6.03 24.93,8.94 5.33,1.97 6.9,3.33 8.05,3.75l7.27 1.96c0.16,0.06 0.33,0.16 0.48,0.22l25.22 7.32c5.43,2.59 9.07,2.55 14.51,4.46 5.04,1.77 15.11,3.28 19.24,4.83 1.62,0.61 1.61,1 3.98,1.59l15.2 3.83c3.55,0.9 12.28,2.27 14.9,3.5 3.37,1.58 0.62,1.53 3.99,2.03 4.88,0.72 5.66,0.07 9.99,2.17 2.79,1.35 7.07,0.44 10.63,2.07 2.82,1.29 0.28,1.06 3.99,1.41l15.48 3c2.89,0.63 7.49,0.48 11.16,1.02 3.12,0.45 7.33,1.53 10.84,1.96l19.75 4c6.08,2.13 14.94,2.62 20.79,3.87 17.02,3.63 48.57,4.64 64.7,8.06 6.97,1.48 14.98,1.81 22.3,2.42 2.03,0.17 3.25,0.05 5.14,0.54 4.34,1.12 11.57,1.51 16.18,2.04 15.62,1.81 29.81,2.93 45.61,3.2l22.63 1.96c14.43,1.32 33.21,-0.11 46.41,2.17 16.57,2.87 124.3,1.23 136.83,0.63 3.75,-0.18 7.63,-0.47 12,-0.66 4.35,-0.19 7.35,-1.14 11.93,-1.24 8.71,-0.2 17.44,-0.11 26.14,-0.3 8.16,-0.18 16.08,-1.3 23.63,-2.26 7.98,-1.02 17.53,0.04 25.07,-1.1 11.95,-1.81 23.85,-2.5 35.89,-2.99 3.95,-0.16 7.9,-1.41 11.33,-1.89 3.85,-0.54 8,-0.62 11.84,-0.94l22.56 -3.3c8.58,-1.95 14.33,-2.21 22.58,-3.4 11.27,-1.62 22.27,-4.85 33.88,-5.45l44.84 -7.66c5.26,-0.88 11.29,-1.15 16.29,-2.83 2.48,-0.83 3.75,-0.5 6.5,-0.75 3.73,-0.35 5.7,-1.88 10.13,-2.54 2.73,-0.41 9.31,-1.06 8.96,-2.79zm496.01 -703.98c0.81,-0.65 0.9,-1.43 3.47,-0.68 0.69,0.2 1.76,1 2.55,1.7l33.87 36.58c1.59,1.47 2.59,2.72 4.08,4.4 3.32,3.76 14.04,13.08 13.06,18.21 -0.47,2.45 -1.96,2.82 -4.47,4.4 -1.01,0.63 -0.23,0.13 -1.45,0.76 -1.16,0.6 -0.32,-0.06 -1.35,0.68 -1.4,1 -0.2,0.14 -0.97,0.97l-6.43 5.03c-1.06,0.63 -1.49,0.94 -2.65,1.62l-9.63 7.88c-1.68,1.28 -2.78,2.66 -4.53,3.88l-10.45 7.2c-1.53,1.27 -0.96,1.19 -2.76,2.19 -2.81,1.56 -6.04,2.61 -8.57,4.82 -0.11,0.09 -0.25,0.24 -0.36,0.34l-14.35 11.06c-2.33,1.59 -3.03,1.4 -5.12,3.3l-5.05 4.2c-2.91,1.52 -14.15,11.4 -20,14.52l-39.76 28.57c-4.86,4.56 -10.57,8.44 -16.34,11.95 -3.18,1.93 -2.27,2.27 -4.85,4.2 -1.58,1.18 -3.33,2.33 -4.96,3.52 -5.54,4.06 -12.91,7.54 -17.79,12.53 -1.22,1.25 -0.76,0.87 -2.25,1.97l-9.89 7.7c-1.67,1.28 -3.94,1.97 -5.94,3.29l-25.31 18.39c-1.01,0.66 -1.87,1.45 -2.68,2.29 -4.29,4.41 -10.39,7.21 -15.08,10.96l-12.38 8.79c-3.83,2.34 -6.22,4.84 -10.35,7.31 -4.93,2.95 -8.68,-1.25 -12.39,-3.18l-11.03 -6.53c-3.3,-1.82 -16.17,-6.89 -15.6,-10.98 0.27,-1.98 2.06,-3.03 3.4,-4.4l5.4 -4.44c4.53,-3.81 7.98,-8.38 13.33,-12.75 3.21,-2.62 5.47,-5.74 8.47,-8.45 3.57,-3.23 5.81,-5.26 9.09,-8.55l19.06 -19.11c2.33,-3.02 -0.53,0.84 3.72,-2.48 1.75,-1.36 2.13,-3.01 4.05,-4.4 1.45,-1.05 1.23,-0.51 2.88,-2.13 3.43,-3.36 13.66,-12.42 15.24,-15.24 1.45,-2.58 2.76,-3.11 4.65,-5.03l8.28 -7.94c1.65,-1.43 2.71,-2.21 4.47,-3.99l14.01 -12.76c7.95,-6.76 14.79,-14.5 22.8,-20.94 3.16,-2.54 6.02,-5.41 9.26,-8.39 1.78,-1.64 0.84,-1.06 2.22,-2.7 0.68,-0.8 1.31,-1.26 2.18,-2.04 1.58,-1.41 2.55,-2.5 4.38,-4.08 3.45,-2.99 5.58,-5.61 9.28,-8.37 5.58,-4.17 9.84,-10.58 15.73,-14.65l6.08 -5.11c2.62,-3.4 6.31,-7.47 9.8,-9.99 2.24,-1.61 2.68,-2.14 4.54,-3.91l18.05 -17.16c4.92,-3.16 9.54,-8.86 14.3,-12.56 4.67,-3.63 8.57,-8.66 13.08,-12.27zm-1658.66 620.66c-4.6,-2.73 -7.14,-6.5 -10.65,-10.37l-25.45 -26.08c-2.62,-3.34 -14.36,-11.47 -19.53,-17.69l-0.95 -1.18c-0.63,-0.74 -1.11,-1.3 -1.75,-1.86 -1.67,-1.47 -3.03,-2.3 -4.5,-3.89 -1.83,-1.99 -1.9,-2.08 -3.91,-3.91 -2.18,-1.99 -1.8,-2.79 -3.8,-4.64l-8.74 -8.17c-0.74,-0.68 -1.55,-1.42 -2.25,-2.03l-6.07 -5.85c-4.09,-4.23 -7.69,-8.83 -12.15,-12.57 -0.87,-0.73 -1.41,-1.24 -2.12,-2.04l-2.03 -2.23c-1.66,-1.66 -2.47,-2.82 -3.97,-4.47l-7.85 -6.95c-4.28,-4.54 -7.99,-9.09 -12.84,-13.29 -2.7,-2.34 -1.65,-1.32 -3.78,-3.9 -3.1,-3.75 -10.59,-9.94 -16.39,-16.79l-6.9 -7.94c-5.74,-7.02 -5.51,-4.57 -9.64,-8.67 -1.27,-1.26 -0.92,-1.01 -1.94,-2.3 -0.38,-0.48 -0.43,-0.56 -0.94,-1.19l-29.77 -29.42c-2.86,-2.93 -5.1,-6.33 -8.43,-8.4 -5.77,-3.6 -5.25,-5.6 -8.15,-8.13l-12.5 -12.25c-6.12,-6.69 -1.71,-6.83 5.41,-13.66 6.99,-6.71 12.98,-14.27 20.17,-20.72 4.57,-4.1 7.61,-8.45 12.19,-12.48 1.68,-1.48 2.83,-2.6 4.47,-4.02l12.39 -12.28c6.3,-5.68 3.34,-3.67 7.82,-8.37 5.49,-5.74 11.77,-10.86 16.51,-16.65 2.95,-3.61 5.58,-4.21 8.62,-7.56l32.11 -32.13c2.81,-2.37 2.9,-3.77 4.89,-5.63l61.57 -61.82c1.74,-1.78 2.43,-2.37 4.08,-4.44 2.28,-2.85 1.89,-1 4.22,-3.49l24.48 -24.86c1.6,-1.59 2.97,-2.54 4.51,-3.96l7.74 -8.46c1.4,-1.48 2.82,-2.58 4.3,-4.16l24.35 -24.28c5.42,-5.5 5.25,-4.42 9.05,-7.89 0.81,-0.74 -0.61,0.6 0.71,-0.7l6.58 -6.84c2.9,-2.59 6.43,-5.47 8.85,-8.68 2.78,-3.69 5.01,-4.86 7.93,-8.32 3.93,-4.64 8.08,-8.96 12.85,-12.57 4.72,-3.57 16.29,-16.08 20.3,-20.56l11.71 -13.63c1.82,-1.58 2.37,-1.06 4.27,-3.65 3.41,-4.62 6.32,-5.15 9.12,-9.25l3.02 -3.03c3.28,-2.3 1.53,-1.64 3.57,-4.45 1.62,-2.22 2.36,-0.75 4.74,-3.71 0.81,-1.01 0.97,-1.56 1.73,-2.38l1.45 -1.37c0.11,-0.11 0.26,-0.25 0.37,-0.36 0.11,-0.11 0.25,-0.26 0.36,-0.36 0.75,-0.74 1.48,-1.39 2.11,-2.12l7.16 -6.97c1.98,-2.2 -2.09,2.11 1.01,-1.06l8.67 -8.33c1.02,-1.26 0.52,-1.12 1.75,-2.41 1.29,-1.36 2.84,-1.82 4.5,-3.2 6.72,-5.56 26.14,-26.62 32.63,-32.96 2.06,-2.01 2.06,-2.2 3.97,-4.6 1.39,-1.75 2.85,-2.32 4.5,-3.83l12.68 -13.5c5.63,-6.05 10.13,-8.99 15.83,-15.92l6.04 -5.83c0.1,-0.09 0.26,-0.21 0.36,-0.29 6.6,-5.32 11.9,-12.64 18.78,-17.9l6.28 -5.79c1.43,-1.27 0.66,-0.16 2.34,-1.86 1.52,-1.54 2.48,-2.93 4.01,-4.46l16.16 -16.28c1.66,-1.88 2.9,-2.74 4.49,-4l53.27 -53.16c3.14,-3.12 5.29,-5.83 8.23,-8.69 1.55,-1.51 3.14,-2.5 4.55,-3.9 4.08,-4.07 7.72,-8.86 12.06,-12.63 5.77,-5.01 10.65,-10.94 16.2,-16.21 1.33,-1.26 3.54,-2.63 4.47,-4.02 2.22,-3.31 -0.2,-1.37 3.38,-4.3l4.97 -4.93c0.11,-0.1 0.27,-0.24 0.37,-0.34l7.6 -7.23c1.69,-1.83 1.75,-2.14 3.83,-3.9l33.27 -33c1.21,-1.62 2.78,-2.65 4.41,-4.08 3.43,-2.99 4.89,-5.47 7.88,-8.33l23.14 -22c0.73,-0.63 -0.82,0.68 0.78,-0.65l4.35 -4.75c0.09,-0.12 0.22,-0.28 0.32,-0.39l20.15 -20.76c0.52,-0.53 0.4,-0.53 0.97,-1.14l8.38 -7.85c2.94,-2.96 7.18,-5.71 9.33,-8.9 1.52,-2.24 3.68,-3.16 7.4,-6.81l8.37 -8.62c1.93,-1.61 0.42,-0.28 1.82,-2.22l14.24 -14.09c4.15,-3.55 6.44,-8.38 10.59,-11.89 6.37,-5.39 11.1,-11.92 17.39,-17.19l12.18 -12.6c2.37,-3.09 2.16,-1.41 4.87,-3.54 1.72,-1.36 1.62,-2.72 3.7,-4.72 1.44,-1.38 2.41,-2.42 3.89,-3.88 0.56,-0.55 0.46,-0.39 1.1,-1.01l23.78 -24.13c0.11,-0.1 0.27,-0.24 0.37,-0.34l0.73 -0.7c12.22,-11.68 24.59,-23.72 35.89,-36.06l12.33 -12.31c2.81,-2.72 5.47,-5.1 8.29,-7.92l10.69 -10.45c3.98,-3.24 7.2,-7.94 10.28,-10.17l11.98 -12.01c1.44,-1.67 2.93,-2.66 4.32,-4.14 9.37,-9.91 19.53,-19.13 28.63,-29.23 2.85,-3.17 5.01,-5.91 7.79,-9.12 2.04,-2.36 6.5,-4.56 9.12,-7.05 3.02,-2.87 2.61,-4.21 6.38,-6.96 0.13,-0.09 0.29,-0.22 0.42,-0.31 0.12,-0.09 0.28,-0.23 0.4,-0.32 3.88,-3.04 5.11,-5.89 8.83,-8.77 3.65,-2.83 16.53,-15.12 18.75,-18.67l38.86 -38.7c3.47,-3.79 5.82,-5.06 9.32,-8.32l20.94 -21.35c0.63,-0.57 0.22,-0.05 1.06,-1.02l6.31 -6.37c4.83,-6.16 11.27,-10.87 16.81,-16.36l3.89 -3.83c0.14,-0.15 0.51,-0.61 0.64,-0.77l5.6 -5.66c0.52,-0.66 0.87,-1.3 1.49,-2.07 4.88,-6.18 11.42,-10.61 16.31,-16.88 4.91,-6.29 11.19,-10.99 16.39,-16.75 1.6,-1.77 2.8,-2.13 4.58,-3.85l8.83 -9.51c2.81,-3.03 7.02,-4.8 8.64,-6.82l5.22 -6.1c0.92,-0.93 1.12,-1.17 2.09,-2.14l8.05 -8.17c1.42,-1.54 2.36,-2.45 3.84,-3.93l16.82 -16.31c8.44,-9.52 7.58,-11.27 16.54,-0.59l8.64 8.29c0.74,0.71 1.4,1.43 2.15,2.09 1.16,1.04 1.45,1.04 2.43,1.83l24.26 24.27c1.2,1.59 0.25,0.93 1.78,2.5 1.01,1.04 1.21,0.92 2.35,1.91 3,2.61 4.98,5.72 7.8,8.43 1.75,1.67 2.76,2.22 4.44,4l14.18 14.05c12.03,10.75 7.16,9.37 13.67,15.18l4.45 3.99c4.29,3.5 7.96,8.3 12.22,11.76 1.12,0.91 0.48,0.38 1.13,0.99 0.15,0.14 0.56,0.56 0.71,0.7l14.91 14.74c1.74,1.85 0.45,0.48 1.83,2.43 0.62,0.88 1.17,1.43 1.96,2.22 0.73,0.73 1.36,1.37 2.13,2.09 0.15,0.14 0.58,0.54 0.73,0.68 6.25,5.74 12.7,11.46 17.86,18.21l5.39 5.11c2.29,2.63 5.02,4 7.54,6.53l7.84 8.37c1.37,1.32 2.91,2.08 4.13,3.64l5.44 7.28c1.45,1.71 -1.23,-1.05 1.02,1.02l3.32 3.08c2.35,2.41 4.5,2.63 6.95,5.04 2.75,2.7 12.8,12.14 14.64,14.96l2.83 3.51c0.1,0.11 0.24,0.26 0.34,0.37 0.1,0.11 0.23,0.27 0.33,0.38 0.64,0.72 1.33,1.56 1.99,2.24 2.86,2.92 6.48,4.72 9.06,7.82l8.13 8.1c1.41,1.41 2.22,2.5 3.8,3.97 0.52,0.48 1.83,1.64 2.18,2.04l14.01 14.9c1.45,1.48 2.42,2.82 4.18,4.25l17.18 15.98c1.77,2.15 0.87,2.18 3.16,4.62 1.65,1.76 2.91,2.54 4.43,4l11.98 12.65c2.23,1.77 4.86,3.73 6.62,6.21l20.36 20.51c2.11,2.62 4.16,2.66 6.13,5.93l2.1 2.71c5.31,5.66 5.67,4.42 8.25,7.27l1.81 2.51c1.29,1.87 2.35,2.28 3.86,3.79 2.24,2.25 1.34,2.19 4.22,4.14 2.95,1.99 3.53,3.93 5.75,6.36 2.3,2.5 4.66,3.17 7.18,5.51 3.13,2.91 4.87,5.51 7.95,8.24l29.35 30.59c3.33,3.31 7.72,5.75 12.03,10.52 1.55,1.72 2.42,2.86 4.03,4.43l16.47 16.66c1.39,1.41 2.43,2.69 3.69,4.1 1.42,1.59 2.76,2.35 4.48,3.96l22.15 22.99c0.74,0.78 1.32,1.45 2.04,2.18 1.16,1.19 1.05,1 2.15,2.06 0.11,0.1 0.26,0.25 0.37,0.36l6.65 6.78c0.37,0.4 0.69,0.77 0.99,1.11 6.3,7.23 6.3,6.02 12.75,12.62 0.1,0.1 0.25,0.26 0.35,0.36l5.87 4.66c4.36,3.38 12.73,13.69 18.32,18.35l14.35 14.55c3.02,2.76 5.91,5.3 8.72,8.21l28.72 29.1c5.05,5.4 10.51,11.44 16.34,16.06l20.98 20.66c0.11,0.1 0.26,0.24 0.37,0.34 0.11,0.1 0.26,0.24 0.36,0.34 0.41,0.39 0.53,0.48 1.08,1.01 3.55,3.47 6.32,7.15 10.37,10.14 7.7,5.69 12.97,14.3 20.11,20.71 14.63,13.16 3.57,9.49 -7.47,24.28l-15.08 15.26c-4.29,4.95 -9.89,9.19 -14.21,13.98 -0.29,0.32 -0.8,0.85 -1.04,1.09l-14.96 14.65c-1.38,1.41 -1.39,1.94 -2.55,3.09 -2.2,2.2 -1.14,0.6 -3.17,1.87 -2.62,1.63 -0.3,-0.02 -2.13,2.62l-31.99 32.98c-2.43,3.29 -7.53,7.05 -10.52,9.91 -4.65,4.45 -15.65,17.27 -19.88,20.23 -3.85,2.7 -11.7,11.34 -14.88,14.8 -0.94,1.02 -1.44,1.45 -2.55,2.39 -4.26,3.62 -7.77,8.4 -12.04,12.62l-15.18 15.09c-3.2,2.34 -5.48,6.13 -8.28,8.65l-7.19 6.26c-3.34,3.28 -6.03,7.17 -9.52,10.2l-10.19 10.33c-2.26,2.87 -4.86,2.9 -7.41,5.25 -0.1,0.09 -0.25,0.25 -0.35,0.34 -0.1,0.1 -0.25,0.25 -0.35,0.35 -0.1,0.1 -0.25,0.25 -0.34,0.35l-17.32 17.21c-0.81,0.84 -1.76,1.83 -2.41,2.49l-2.63 2.33c-0.1,0.1 -0.24,0.25 -0.34,0.35l-8.48 9.11c-0.1,0.11 -0.24,0.27 -0.34,0.38l-12.62 12.82c-0.1,0.1 -0.27,0.23 -0.37,0.33 -0.1,0.1 -0.25,0.24 -0.35,0.34l-18.5 18.84c-5.53,6.87 -12.16,12.86 -18.46,18.95 -1.35,1.31 -0.08,-0.06 -1.38,1.42l-3.79 3.38c-2.94,1.74 -0.64,-0.16 -2.82,2l-7.15 7.73c-3.86,3.2 -6.73,7.35 -10.48,10.67 -0.11,0.1 -0.28,0.23 -0.39,0.32 -0.11,0.09 -0.28,0.22 -0.39,0.31 -5.2,4.41 -11.17,11.9 -16.38,16.69l-32.02 32.83c-6.17,6.09 -8.83,11.81 -19.75,8.16 -3.16,-1.06 -4.97,-0.89 -7.53,-2.32 -4.22,-2.35 -2.54,-1.22 -7.65,-2.21 -2.07,-0.4 -5.16,-1.87 -7.89,-2.66l-23.82 -5.92c-3.46,-0.97 -3.28,-1.96 -7.7,-2.69l-32.69 -7.56c-2.78,-0.55 -5.65,-0.79 -8.52,-1.47 -2.47,-0.59 -5.76,-1.7 -7.76,-2.1 -7.39,-1.5 -9.36,0.08 -17.23,-2.65 -2.54,-0.88 -5.63,-0.73 -8.41,-1.5l-41.16 -8.6c-6.85,-0.21 -33.86,-4.76 -44,-6.27 -11.31,-1.68 -45.27,-5.3 -52.96,-6.87 -5.49,-1.12 -12.61,-1.25 -18.7,-1.36 -7.42,-0.14 -11.85,-0.94 -18.04,-2.18 -7.15,-1.43 -48.06,-3.76 -56.01,-3.97 -5.84,-0.16 -13.27,-1.02 -18.99,-1.35 -24.09,-1.36 -48.66,-1.57 -72.64,-1.63 -39.09,-0.09 -79.15,0.99 -117.74,1.54 -13.2,0.19 -24.8,1.93 -38.08,2.1 -17.01,0.22 -19,1.93 -26.36,3.07 -2.28,0.35 -7.04,0.12 -9.59,0.15 -11.49,0.14 -12.57,1.9 -18.32,2.12 -17.47,0.67 -21.19,1.41 -37.19,3.27l-52.32 7.55c-5.12,1.38 -12.05,0.98 -17.76,1.92 -3.89,0.64 -3.23,1.84 -7.64,2.06 -3.57,0.17 -6.28,-0.04 -9.37,0.81 -3.92,1.08 -2.56,1.86 -8.26,2.03 -6.12,0.19 -11.12,1.88 -17.16,2.78l-13.05 2.49c-1.63,0.35 -2.5,0.77 -3.85,0.96 -7.62,1.06 -18.3,1.84 -25.24,4.69 -2.79,1.14 -5.93,0.78 -8.84,1.73 -3.87,1.27 -0.44,0.33 -3.16,1.77 -2.18,1.16 -17.29,3.59 -20.41,3.98 -4.78,0.6 -3.1,1.82 -7.69,2.2 -4.64,0.38 -4.99,0.12 -8.64,1.53 -6.19,2.38 -10.32,2.39 -17.79,6.1l-36.51 9.93c-1.52,0.4 -2.3,0.42 -3.99,1.02 -1.86,0.67 -2.22,1.1 -3.37,1.5 -5.77,2 -11.78,2.79 -17.11,5.58 -3.56,1.86 2.23,-0.16 -1.75,0.84 -1.31,0.33 -3.01,0.2 -4.55,0.55 -1.98,0.44 -4.61,1.79 -7.4,2.55l-14.34 5.49c-4.18,2.37 -10.23,3.1 -14.38,5.35 -1.9,1.03 -5.13,1.95 -7.09,2.8l-17.73 7.59c-3.53,1.52 -5.79,3.95 -9.52,5.08 -3.93,1.19 -4.31,1.19 -7.55,2.6 -14.3,6.21 -44.39,23.85 -49.66,25.88 -6.48,2.51 -4.92,1.63 -10.34,5.79 -0.12,0.09 -0.28,0.22 -0.4,0.31l-7.8 4.93c-8.04,5.59 -4.67,2.36 -14.54,10.79l-5.85 4.07c-2.3,1.59 -3.62,2.54 -5.63,4.21l-7.22 5.52c-1.24,1 0.13,-0.3 -1.28,1.43l-14 12.17c-0.11,0.1 -0.26,0.24 -0.37,0.34l-4.14 3.62c-0.81,0.71 -0.68,0.63 -1.4,1.36 -0.1,0.1 -0.24,0.26 -0.35,0.37l-3.12 3.82c-3.72,5.52 -9.43,10.65 -13.97,15.74 -0.67,0.75 -1.61,1.89 -2.23,2.68l-2.16 2.82c-5.64,6.49 -9.56,14.62 -13.78,19.39l-1.06 1.06c-2.62,2.92 -3.62,7.95 -5.6,11.22 -2.92,4.82 -5.02,10.49 -7.71,15.55l-0.54 0.91c-0.08,0.13 -0.2,0.29 -0.28,0.42 -1.53,2.47 -4.76,13.9 -4.95,17.31 -0.19,3.48 -1.22,4.5 -2.21,7.85l-2.79 17.65c-0.64,5.55 -0.84,13.33 -0.88,18.92 -0.16,27.31 1.32,182.52 -0.88,198.03zm1788.4 -747.24c2.08,-4.02 6.23,-7.17 9.15,-10.22 1.28,-1.34 0.93,-1.98 2.02,-3.65 2.68,-4.15 20.75,-19 25.05,-24.25l2.24 -2.72c2.49,-2.57 3.75,-5.28 5.85,-8.25 3.9,-5.5 3.48,-8.36 5.99,-12.36 1.45,-2.3 0.72,-2.15 1.77,-4.7 5.89,-14.27 6,-32.87 2.74,-48.12 -4.5,-21.11 -14.24,-30.66 -28.19,-45.29l-5.7 -5.53c-6.86,-8.5 -17.09,-14.08 -23.36,-23.08 -0.09,-0.13 -0.2,-0.31 -0.29,-0.43l-5.22 -4.84c-4.45,-3.5 -6.72,-7.55 -9.16,-9.28 -4.23,-3.01 -5.94,-5.22 -9.32,-8.83l-2.64 -3.63c-0.48,-0.61 -2.5,-2.74 -3.09,-3.34 -0.17,-0.17 -1.35,-1.27 -1.51,-1.39 -1.44,-1.07 -0.54,-0.3 -1.81,-1.09 -1.97,-1.23 -3.89,-4.52 -5.61,-6.24l-45.88 -46.47c-4.39,-3.78 -3.81,-4.99 -7.04,-7.69 -0.12,-0.1 -0.29,-0.22 -0.41,-0.33l-2.87 -3.55c-2,-2.19 -4.96,-3.95 -6.57,-6.18l-29.34 -28.37c-0.77,-0.76 -0.69,-0.81 -1.71,-1.82l-17.21 -15.93c-1.39,-1.38 -1.53,-1.61 -2.96,-3.33 -3.9,-4.73 -10.54,-9.19 -17.06,-16.73 -0.1,-0.12 -0.24,-0.28 -0.34,-0.4l-7.45 -7.4c-0.61,-0.6 -0.79,-0.8 -1.48,-1.41l-18.29 -18.93c-2.94,-4.27 -7.27,-7.04 -10.52,-10.74 -1.25,-1.42 -1.97,-1.86 -3.2,-3.15 -1.97,-2.07 -3.73,-4.53 -5.66,-6.31 -2.17,-2 -5.72,-3.38 -7.39,-5.25l-5.01 -5.67c-0.11,-0.1 -0.28,-0.23 -0.39,-0.33 -0.11,-0.1 -0.28,-0.22 -0.39,-0.32l-6.02 -5.86c-2.95,-3.17 -7.32,-8.8 -10.67,-11.36 -0.91,-0.69 -1.07,-0.63 -1.67,-1.12 -1.4,-1.12 -0.34,-0.24 -1.64,-1.73l-10.18 -11.04c-1.51,-1.39 -2.04,-1.41 -3.54,-2.79l-0.7 -0.7c-0.1,-0.1 -0.25,-0.25 -0.35,-0.36l-1.76 -1.77c-0.02,-0.02 -1.07,-1.01 -1.1,-1.04 -0.96,-0.87 -0.24,-0.19 -0.76,-0.66 -0.93,-0.83 -0.71,-0.63 -1.42,-1.35l-12.29 -12.44c-0.11,-0.1 -0.28,-0.23 -0.39,-0.33l-1.47 -1.3c-0.81,-0.8 -0.47,-0.57 -1.36,-1.47 -5.58,-5.65 -10.36,-9.31 -16.9,-16.84l-18.3 -18.48c-2.13,-1.91 -2.38,-3.08 -4.37,-5.47l-5.8 -6.19c-0.34,-0.35 -1.26,-1.17 -1.46,-1.39l-6.12 -5.19c-0.12,-0.09 -0.29,-0.21 -0.4,-0.3l-34.8 -34.3c-0.11,-0.1 -0.28,-0.22 -0.39,-0.32l-3.16 -3.79c-0.42,-0.49 -1.31,-1.32 -1.82,-1.78l-26.25 -25.88c-1.7,-1.73 -2.25,-1.45 -3.6,-2.78 -3.77,-3.73 -7.62,-9.85 -11.21,-13.45 -1.9,-1.9 -4.31,-3.56 -6.42,-5.57l-11.99 -11.94c-1.82,-2.45 -4.55,-4.23 -6.63,-6.13 -1.78,-1.63 -4.1,-4.26 -5.83,-6.12 -2.06,-2.22 -3.98,-4.3 -6.16,-6.54l-12.7 -12.02c-3.42,-2.59 -6.1,-6.2 -8.95,-9.33 -5.88,-6.45 -12.94,-12.04 -18.53,-18.87 -1.47,-1.79 -0.86,-1.55 -2.51,-3.09l-9.8 -9.25c-5.88,-5.15 -4.89,-5.26 -9.25,-9.09 -4.96,-4.36 -8.8,-9.28 -13.36,-14.11l-15.97 -15.78c-0.14,-0.15 -0.53,-0.59 -0.67,-0.74l-12.33 -12.34c-0.82,-0.86 -0.26,-0.24 -1.08,-1.02 -0.1,-0.1 -0.26,-0.24 -0.36,-0.34l-18.05 -18.61c-0.1,-0.09 -0.25,-0.24 -0.35,-0.33 -6.82,-5.71 -5.58,-5.9 -10.71,-10.45l-6.19 -5.73c-4.6,-3.22 -8.48,-8.33 -12.49,-12.29l-12.56 -12.1c-2.88,-3.06 -10.01,-9.44 -10.51,-13.45 -4.19,-0.39 -5.22,-3.78 -9.05,-7.15l-20.36 -20.57c-0.7,-0.68 0.06,0 -1.08,-1.03l-6.59 -6.73c-6.39,-5.17 -9.49,-10.19 -15.02,-14.61l-11.9 -10.75c-4.57,-4.21 -11.46,-12.73 -15.13,-15.85l-8.47 -7.08c-3.05,-2.44 -5.52,-4.22 -9.42,-6.17 -7.18,-3.6 -13.95,-7.21 -22.24,-8.83 -7.5,-1.47 -19.19,-3.78 -27.92,-2.34 -8.81,1.45 -17.85,2.15 -25.87,5.88 -1.48,0.69 -4.09,1.62 -5.31,2.41 -1.27,0.82 0.08,0.07 -1.15,0.91l-3.77 1.92c-1.29,0.79 0.1,0.01 -1.18,0.91l-6.08 3.84c-2.42,1.6 -4.31,2.89 -5.95,5.2 -2.16,3.02 -5.51,4.95 -8.17,7.43l-18.92 19.81c-2.21,2.8 -1.79,1.62 -4.35,3.51l-5.77 6.09c-0.62,0.78 -1.18,1.28 -1.79,1.83l-27.09 27.18c-2.9,2.85 -4.45,5.74 -7.3,8.17 -6.76,5.76 -12.89,12.78 -18.13,17.19 -1.13,0.95 -2.02,1.4 -2.41,1.78 -0.67,0.65 -0.16,0.22 -0.9,1.13 -5.95,7.34 -13.34,14.11 -19.96,21.01l-15.38 14.19c-0.1,0.11 -0.25,0.27 -0.35,0.38 -0.11,0.11 -0.26,0.25 -0.37,0.36l-20.94 21.3c-7.82,9.24 -12.42,11.65 -15.69,15.34 -1.48,1.67 -1.92,2.57 -3.59,4.21l-15.37 15.61c-1.58,2.19 -1.75,2.19 -3.71,4.06l-31.26 31.52c-3.54,4.08 -8.45,6.83 -11.85,11.36l-7.6 7.95c-1.47,1.53 -2.45,2.15 -4.22,3.55 -2.85,2.25 -4.84,5.48 -7.49,7.99 -2.65,2.5 -4.68,5.12 -7.71,7.79l-31.47 30.58c-7.87,7.7 -14.83,15.97 -23.24,23.31l-13 12.45c-3.48,2.71 0.74,-0.86 -1.18,0.89 -3.09,2.81 -5.74,7.29 -8.93,10.11 -1.35,1.19 -1.23,0.69 -2.45,1.77l-17.69 17.52c-1.46,1.59 -2.09,2.65 -3.7,4.11l-12.78 12.54c-3.04,3.98 -6.92,7.16 -10.47,10.72l-8.03 7.52c-1.23,1.04 -0.61,0.67 -1.88,2.26l-5.39 5.93c-6.23,6.54 -12.75,13.5 -19.59,19.19 -1.34,1.12 -2.61,2.55 -3.89,3.85 -2.64,2.7 -4.69,5.23 -7.45,8.07l-31.48 30.56c-2.99,2.97 -4.46,6.06 -7.47,8.72l-31.31 30.07c-4.13,3.95 -7.31,8.71 -11.9,12.08 -3.06,2.24 -4.04,5.81 -7.37,8.11l-11.76 11.5c-4.74,5.68 -11.39,10.69 -15.57,15.44 -2.63,2.99 -5.04,4.98 -7.65,7.89l-11.93 11.29c-6.34,7.57 -34.76,35.18 -40.89,40.96l-4 4.44c-0.61,0.56 -1.32,0.95 -2.12,1.49 -2.25,1.51 -0.83,0.36 -2.24,1.88 -0.59,0.64 -0.36,0.48 -1,1.14 -0.1,0.11 -0.26,0.25 -0.37,0.35l-7.48 8.72c-0.79,0.79 -1.31,1.21 -2.14,2.1 -0.72,0.78 -1.04,1.23 -1.64,1.89l-15.6 15.41c-2.38,2.14 -1.8,0.92 -4.01,3.75 -1.33,1.71 -2.31,2.63 -3.86,3.88 -5.49,4.43 -13.52,14.22 -19.45,19.35l-7.71 7.78c-2.98,3.08 -4.89,4.72 -8.03,7.51 -2.98,2.64 -4.84,5.2 -7.55,7.94l-9.7 10.04c-0.39,0.39 -0.69,0.69 -1.05,1.08 -5.4,5.77 -11.82,10.17 -17.06,16.04 -1.35,1.51 -1.99,2.4 -3.62,4.15l-15.37 15.65c-1.97,1.64 -2.02,2.15 -3.8,3.96 -1.43,1.46 -3.04,2.25 -4.31,3.47 -3.76,3.62 -7.08,8.69 -11.03,12.2 -1.84,1.64 -2.36,1.29 -4.27,3.51 -1.82,2.1 -1.63,2.01 -3.8,3.94l-31.05 30.99c-3.4,4.09 -7.24,8.46 -11.39,11.87 -4.18,3.43 -7.99,6.41 -11.39,10.44 -0.09,0.11 -0.22,0.28 -0.32,0.39l-43.18 43.56c-3.33,4.27 -8.49,7.45 -11.97,11.3 -1.52,1.69 -2.27,2.56 -3.69,4.09 -2.56,2.78 -4.93,4.87 -7.65,7.86 -3.79,4.17 -9.6,8.35 -12.24,11.01 -0.92,0.93 1.46,-1.69 -0.67,0.72 -8.27,9.41 -16.78,17.23 -23.89,25.53 -2.85,3.33 -5.17,3.38 -8.15,7.25l-5.75 5.61c-1.21,1.22 -2.66,2.54 -3.89,3.87 -5.89,6.36 -4.47,3.81 -7.73,7.08 -0.11,0.11 -0.25,0.27 -0.36,0.37l-7.63 7.86c-0.89,0.84 -0.12,0.15 -1.03,1.06 -0.7,0.7 -0.54,0.54 -1.08,1.06l-4.23 4.21c-0.1,0.11 -0.24,0.26 -0.35,0.37l-7.67 7.2c-1.54,1.27 -0.27,0.24 -1.77,1.71l-3.46 4.26c-2.62,3.18 -5.56,4.58 -7.61,7.85l-21.64 20.83c-0.11,0.09 -0.29,0.2 -0.4,0.29l-16.83 17.63c-0.44,0.49 -1.56,1.65 -2.08,2.17l-3.82 3.92c-0.83,0.84 -0.76,0.65 -1.8,1.72l-13.84 13.69c-7.01,5.96 -1.7,1.39 -5.5,5.73l-23.25 23.3c-1.28,1.21 -0.82,1.09 -1.92,2.31l-58.07 59.05c-0.39,0.53 -0.94,1.35 -1.52,1.88l-21.35 21.7c-0.86,0.88 -1.03,1.06 -1.77,1.69l-16.5 14.6c-3.61,2.8 -6.33,6.94 -9.36,10.37l-9.44 9.57c-1.49,1.39 -2.45,2.31 -3.95,3.82 -2.96,2.95 -5.03,3.97 -7.98,7.6l-20.39 20.4c-0.12,0.09 -0.28,0.23 -0.39,0.32 -0.47,0.38 -0.68,0.56 -1.18,0.95l-40.74 40.36c-1.88,1.85 -2.34,1.83 -4.02,3.7 -1.49,1.66 -1.99,2.57 -3.42,4.4 -2.23,2.87 -5.31,4.73 -7.86,7.62 -2.21,2.5 -5.17,5.11 -7.75,7.75l-62.86 61.9c-1.21,1.65 -2.26,3.36 -3.42,4.34l-11.01 12.27c-2.77,3.5 -3.46,5.6 -5.76,9.8 -1.48,2.69 -4.03,7.97 -4.98,10.51l-3.2 12.38c-1.19,7.09 -1.59,23.73 0.29,30l2.13 9.92c1.15,3.55 4.63,8.97 5.9,12.9 1.12,3.44 0.66,2.83 2.79,5.34 1.34,1.58 2.3,2.48 3.53,4.09 3.16,4.11 5.87,9.74 10.37,13.06 3.82,2.81 8.1,8.08 11.53,11.65 5.16,5.37 10.41,10.77 16.1,15.69l15.31 15.66c6.77,6.77 9.19,11.21 18.99,19.77l17.6 17.66c0.59,0.64 1.28,1.11 1.87,1.67l19.77 18.97c1.25,1.44 2.25,2.83 3.64,4.15 2.93,2.78 4.98,4.86 7.64,7.85 1.43,1.61 2.4,2.36 3.82,3.94 2.22,2.48 1.79,1.62 4.23,3.59 2.71,2.18 5.16,5.83 7.67,7.85 8.03,6.47 7.43,7.32 12.13,11.79 1.62,1.54 2.56,1.75 4.3,3.46 0.81,0.8 1.21,1.27 2.02,2.13 3.04,3.22 5.68,7.52 9.47,9.81 3.18,1.92 9.31,9.11 13.78,12.93l27.77 30.64c1.1,1.02 0.99,0.86 2.3,1.9 1.01,0.81 1.14,0.92 1.99,1.57 1.9,1.45 2.58,2.04 4.02,3.72l7.4 8.14c1.67,1.99 2.2,1.58 4.01,3.76 1.25,1.51 2.34,2.91 3.62,4.12l4.25 3.49c4.49,4.55 8.76,9.8 13.8,13.75 0.86,0.68 1.11,0.73 2.06,1.48 0.9,0.71 1.32,1.19 2.08,2.06l1.7 1.89c2.98,2.9 4.85,5.36 7.69,7.81l5.91 6.06c0.69,0.68 1.15,0.98 1.92,1.63l42.49 42.78c2.09,2.28 2.21,1.83 4.38,3.47 1.47,1.11 2.05,2.66 3.24,4.42 2.16,3.18 5.21,4.78 7.89,7.64l11.62 11.65c1.55,1.58 2.23,2.03 3.86,3.89l11.88 11.4c2.83,2.82 5.04,5.47 7.59,7.92l30.95 31.08c5.52,4.86 10.44,10.43 16,15.75 2.94,2.81 5.86,3.58 6.31,8.88 0.82,9.8 0.01,64.7 0.01,77.51 0,30.11 -2.29,66.51 5.87,95.08 1.09,3.82 1.21,1.04 1.93,5.75 0.64,4.2 0.68,2.88 2.03,5.88 0.9,2 0.93,3.82 1.75,6.06 2.75,7.52 6.9,14.3 10.23,21.52 1.16,2.51 1.19,3.08 2.62,5.19l9.08 14.22c1.61,2.02 1.92,1.8 3.46,4.26l31.95 34.39c3.82,2.95 10.98,11.24 15.79,15.18l24.52 17.74c1.3,0.69 3.62,2.28 4.66,3.16 5.77,4.87 13.41,6.97 19.22,11.81l9.91 6.26c1.69,1.09 3.01,1.9 4.71,3.03 4.79,3.16 10.35,5 15.43,7.86 4.01,2.25 7.89,3.38 11.65,5.99 0.96,0.66 0.28,0.28 1.22,0.86l11.94 5.7c3.35,2.02 4.87,1.78 9.22,4.12l46.91 18.69c8.43,1.86 15.31,5.46 23.32,7.87 2.4,0.72 2.88,1.41 5.5,2.16 2.34,0.67 4.03,0.78 6.31,1.51 2.18,0.7 3.66,1.65 5.54,2.16 2.76,0.75 4.07,0.33 6.58,1.31 2.48,0.97 2.7,1.13 5.96,1.91 3.51,0.85 2.59,1.33 5.18,2.3 2.36,0.89 4.18,0.34 6.73,1.2 2.78,0.95 2.73,1.69 6.31,2.18 2.71,0.37 4.56,0.36 6.78,1.07 1.76,0.56 1.05,0.45 2.67,1.3l32.73 9.52c7.98,1.59 41.7,8.15 50.6,11.43 6.6,2.43 34.95,5.66 39.41,7.18 2.67,0.91 1.87,1.51 5.48,2.04 8.9,1.29 5.45,-0.31 20.6,2.82l13.24 2.28c13.14,2.34 28.98,1.99 41.89,5.39 3.64,0.96 20.6,2.02 27.83,3.33l70.45 6.88c9.55,0.75 19.85,0.6 29.45,1.64 9.56,1.04 18.97,1.23 29.73,1.35 10.27,0.12 21.39,1.68 28.86,1.83 10.55,0.21 19.57,0.63 30.34,0.71 10.56,0.08 21.17,0.1 31.73,0.05 18.67,-0.08 42.12,0.39 60.38,-1.61 8.8,-0.97 20.04,-0.99 29.86,-1.1 10.49,-0.11 18.4,-1.94 28.9,-2.04 10.57,-0.11 19.47,-1.13 29.64,-1.5 4.76,-0.17 9.2,-1.17 14.08,-1.41l49.95 -4.99c3.28,-0.96 0.99,-1.47 5.7,-1.7 5.05,-0.25 10.5,-0 15.51,-0.45l33.39 -5.2c5.11,-0.95 8.88,-0.26 20.7,-2.75 4.57,-0.96 8.87,-0.35 13.57,-1.95 4.72,-1.61 9.32,-0.86 13.37,-2.14 7.99,-2.52 23.96,-3.46 32.88,-5.92 1.76,-0.49 -0.09,-0.27 2.88,-1.23l6.7 -1.14c3.24,-0.83 0.7,-0.13 2.41,-0.99 3.63,-1.85 9.42,-1.36 13.15,-2.44 2.46,-0.71 2.99,-1.49 5.57,-2.02l12.74 -2.78c7.68,-0.87 17.76,-4.11 24.97,-6.05 2.49,-0.67 3.94,-0.68 6.4,-1.4 2.42,-0.71 4.32,-1.02 6.51,-1.43l11.97 -3.4c5.25,-1.26 0.79,-1.09 12,-3.46l34.76 -11.52c5.32,-1.04 7.79,-1.79 12.49,-3.27l17.99 -5.49c2.14,-0.63 3.32,-1.32 5.39,-2.25 2,-0.9 3.42,-1.7 5.4,-2.38 4.72,-1.63 9.92,-2.8 14.27,-5.41l14.81 -6.39c0.12,-0.05 1.47,-0.48 1.64,-0.53 1.5,-0.45 1.3,-0.21 2.64,-0.84 3.58,-1.67 6.77,-4.08 10.63,-5.01l4.06 -1.99c3,-2.58 8.41,-3.36 11.83,-5.24l20.69 -11.03c5.62,-2.41 14.24,-8.16 19.33,-11.58 5.2,-3.49 10.03,-4.5 14.55,-8.69 2.03,-1.88 5.35,-3.23 7.55,-4.55 0.86,-0.52 1.3,-0.64 2.32,-1.24 1.71,-0.99 1.17,-0.92 2.35,-1.79 1.01,-0.74 0.16,-0.22 1.35,-0.86l5 -3.38c0.12,-0.09 0.29,-0.21 0.41,-0.31l15.45 -12.04c2.48,-2.03 4.26,-2.19 6.32,-4.85 2.84,-3.66 3.35,-1.66 7.9,-7.72l7.88 -7.61c2.71,-2.6 5.36,-4.78 7.95,-7.56l7.21 -8.31c7.51,-8.69 14.44,-15.96 20.27,-26.34l10.75 -17.36c2.54,-4.38 3.85,-8.4 5.76,-13.41 1.4,-3.67 1.39,-1.74 2.45,-5.26 0.63,-2.09 0.69,-4.09 1.71,-6.02 1.36,-2.56 1.56,-1.86 2.25,-5.49 0.66,-3.46 0.85,-3.22 1.82,-5.92 1.61,-4.5 0.6,-9.14 2.38,-13.15 0.94,-2.11 0.92,-4.45 1.11,-6.87l1.73 -13.53c1.28,-8.89 0.18,-113.91 0.18,-131.79l0 -435.71c0,-47.83 -3.72,-35.57 12.73,-49.15 8.63,-7.12 10.72,-7.66 18.58,-13.16l9.23 -6.32c1.8,-1.09 2.58,-2.24 4.26,-3.46l27.26 -19.27c1.53,-1.29 1.99,-2.54 3.83,-3.89l7.21 -4.79c8.53,-6.3 17.56,-12.96 26.72,-18.48 0.14,-0.08 0.32,-0.19 0.46,-0.27l6.35 -5.53c2.1,-1.84 5.11,-2.79 7.45,-4.58l10.73 -8.25c4.2,-3.8 5.7,-3.82 9.62,-6.02 2.7,-1.51 6.02,-5.06 8.25,-7.14l18.7 -13.09c1.88,-1.05 2.84,-1.76 4.75,-3.02 2.18,-1.44 2.33,-1.8 4.69,-3.12 2.42,-1.35 2.34,-1.54 4.31,-3.32l24.93 -18.12c0.64,-0.48 0.96,-0.9 1.9,-1.61 6.75,-5.12 14.89,-12.87 22.39,-16.36 2.4,-1.12 2.5,-1.75 4.39,-3.37l18.09 -12.98c6.44,-3.55 11.93,-8.75 17.86,-13.12 5.51,-4.07 27.68,-18.66 32.16,-22.83 3.57,-3.31 9.56,-6.54 13.81,-9.51l4.3 -3.39c3.63,-4.24 11.25,-8.6 16.09,-11.53 3.19,-1.93 4.74,-4.28 7.51,-6.56l7.77 -8.98c3.2,-5.79 7.5,-10.19 9.75,-16.94 1.05,-3.16 1.66,-2.39 2.48,-5.23 0.6,-2.08 0.36,-4.79 0.85,-7.02 1.56,-7.17 2.27,-1.95 2.39,-12.95 0.07,-6.3 1.32,-20.17 -1.41,-25.85 -1.35,-2.81 -1.34,-5.81 -2.57,-8.75 -1.24,-2.95 -1.12,-1.08 -2.31,-5.44l-11.2 -19.68c-10.14,-10.37 -7.28,-10.23 -13.47,-17.6 -2.12,-2.52 -5.15,-5.63 -6.85,-8.63l-19.76 -28.98c-0.02,-0.03 -0.44,-0.69 -0.55,-0.86l-17.45 -23.36c-2.37,-2.63 -3.64,-5.71 -5.79,-8.31l-3.85 -6.19c-0.08,-0.15 -0.15,-0.34 -0.22,-0.49l-4.94 -7.62c-4.44,-4.92 -2.47,-4.74 -4.74,-7.99 -3.2,-4.58 -3.83,-4 -7.67,-7.71l-2.91 -3.53c-3.21,-4.27 -9.32,-11.51 -11.54,-16.07l-1.93 -3.59c-3.06,-3.91 -6.88,-7.86 -9.16,-12.27z"/>
 </g>
</svg>
